# xmcd
#
# Track frame offsets:
#	150
#	12442
#	24347
#	36650
#	45910
#	56955
#	68622
#	81205
#	93387
#	105577
#	116792
#	126455
#	139445
#	149492
#	164395
#	178670
#	191102
#	202812
#	215822
#	227897
#	238720
#	249095
#	259832
#	271660
#	283815
#	295560
#	307245
#	318825
#	330197
#	340535
#
# Disc length: 4697 seconds
#
# Revision: 0
# Processed by: cddbd v1.4PL0 Copyright (c) Steve Scherf et al.
# Submitted via: EasyCDDAExtractor 4.6.0.1
#
DISCID=c212571e
DTITLE=Jim and Jesse - Bluegrass and More Vol. 5
DYEAR=1900
DGENRE=Country
TTITLE0=Orange Blossom Special
TTITLE1=Buckaroo
TTITLE2=Remington Ride
TTITLE3=Sugar-Foot Rag
TTITLE4=Maiden's Prayer
TTITLE5=Down Yonder
TTITLE6=Banderilla
TTITLE7=We'll Build A Bridge
TTITLE8=When The Snow Is On The Roses
TTITLE9=Then I'll Stop Goin' For You
TTITLE10=Big Job
TTITLE11=Are You Teasing Me
TTITLE12=I Don't Believe You've Met My Baby
TTITLE13=My Baby's Gone
TTITLE14=Cash On The Barrelhead
TTITLE15=Childish Love
TTITLE16=Must You Throw Dirt In My Face
TTITLE17=When I Stop Dreaming
TTITLE18=Knoxville Girl
TTITLE19=I Take The Chance
TTITLE20=I'm Hoping That You're Hoping
TTITLE21=Fire Ball Mail
TTITLE22=Streamlined Cannonball
TTITLE23=Tennessee Central 9
TTITLE24=(I Heard That) Lonesome Whistle
TTITLE25=Pan American
TTITLE26=The Golden Rocket
TTITLE27=A Freight Train In My Mind
TTITLE28=I Like Trains
TTITLE29=Wabash Cannon Ball
EXTD=
EXTT0=
EXTT1=
EXTT2=
EXTT3=
EXTT4=
EXTT5=
EXTT6=
EXTT7=
EXTT8=
EXTT9=
EXTT10=
EXTT11=
EXTT12=
EXTT13=
EXTT14=
EXTT15=
EXTT16=
EXTT17=
EXTT18=
EXTT19=
EXTT20=
EXTT21=
EXTT22=
EXTT23=
EXTT24=
EXTT25=
EXTT26=
EXTT27=
EXTT28=
EXTT29=
PLAYORDER=
